PathFileType	4	(X/Y/Z)	Kaydara																																																																																																																									
DataRate	CameraRate	NumFrames	NumMarkers	Units	OrigDataRate	OrigDataStartFrame	OrigNumFrames																																																																																																																					
30	30	4	41	mm	30	81	174																																																																																																																					
Frame#	Time	SALE_LFHD			SALE_RFHD			SALE_LBHD			SALE_RBHD			SALE_LFTShould			SALE_RFTShould			SALE_LRRShould			SALE_RRRShould			SALE_T10			SALE_STRN			SALE_TRUN			SALE_LSHO			SALE_LUPA			SALE_LELB			SALE_LFRM			SALE_LWRA			SALE_LWRB			SALE_LFIN			SALE_RSHO			SALE_RUPA			SALE_RELB			SALE_RFRM			SALE_RWRB			SALE_RFIN			SALE_LFWT			SALE_RFWT			SALE_LBWT			SALE_RBWT			SALE_LTHI			SALE_LKNE			SALE_RWRA			SALE_LSHN			SALE_LANK			SALE_LHEE			SALE_LTOE			SALE_RTHI			SALE_RKNE			SALE_RSHN			SALE_RANK			SALE_RHEE			SALE_RTOE		
		X1	Y1	Z1	X2	Y2	Z2	X3	Y3	Z3	X4	Y4	Z4	X5	Y5	Z5	X6	Y6	Z6	X7	Y7	Z7	X8	Y8	Z8	X9	Y9	Z9	X10	Y10	Z10	X11	Y11	Z11	X12	Y12	Z12	X13	Y13	Z13	X14	Y14	Z14	X15	Y15	Z15	X16	Y16	Z16	X17	Y17	Z17	X18	Y18	Z18	X19	Y19	Z19	X20	Y20	Z20	X21	Y21	Z21	X22	Y22	Z22	X23	Y23	Z23	X24	Y24	Z24	X25	Y25	Z25	X26	Y26	Z26	X27	Y27	Z27	X28	Y28	Z28	X29	Y29	Z29	X30	Y30	Z30	X31	Y31	Z31	X32	Y32	Z32	X33	Y33	Z33	X34	Y34	Z34	X35	Y35	Z35	X36	Y36	Z36	X37	Y37	Z37	X38	Y38	Z38	X39	Y39	Z39	X40	Y40	Z40	X41	Y41	Z41
																																																																																																																												
66	2.667	147.83086	1626.78436	-618.17051	13.72879	1625.38361	-617.239	141.74608	1593.797	-749.72618	13.79191	1592.01965	-742.40395	155.96278	1360.16129	-647.51213	18.11578	1351.54922	-645.80482	148.34882	1426.99402	-756.54419	-1.87185	1424.57016	-746.3916	77.90472	1279.53995	-834.05884	86.66409	1279.73717	-605.52708	88.4274	1189.9868	-573.18172	268.09277	1397.52823	-712.21642	319.87362	1185.88684	-732.38617	311.25599	1073.50555	-753.3699	344.21757	971.44577	-706.90002	292.69991	852.06894	-603.86787	354.7477	835.55229	-648.68774	358.20965	807.80998	-590.87124	-89.47241	1383.26538	-702.00829	-120.12141	1162.93823	-787.48573	-149.84698	1058.21373	-759.63921	-142.09931	947.6873	-786.36047	-168.53035	805.75165	-765.43549	-184.64165	759.24545	-718.51097	222.12145	944.82613	-668.72658	-53.20076	962.50214	-659.92981	162.66325	1001.8779	-835.79292	-15.15006	1020.62912	-833.73283	187.86211	622.6442	-764.41772	196.80313	471.4957	-651.25122	-129.78395	805.86159	-702.52365	196.88089	340.4216	-815.18471	200.5348	289.04095	-999.36363	162.88931	319.57407	-1074.0593	156.27636	118.181	-985.3373	-70.8022	701.12579	-781.11572	-28.3741	557.54105	-653.86559	28.52098	359.44267	-656.0099	-8.72349	106.2793	-710.68001	9.88276	53.12212	-584.0797	39.20544	50.04302	-783.68546
67	2.7	146.24605	1629.56406	-570.96058	12.36928	1626.98425	-568.30677	138.56036	1599.00177	-702.91054	10.76136	1596.02325	-693.92632	156.09392	1362.87521	-605.45612	18.64395	1354.01398	-600.66059	145.47381	1430.52124	-714.30336	-4.41208	1427.7684	-700.59685	73.33108	1283.25546	-790.36674	87.77913	1282.4646	-562.43721	90.42324	1192.96425	-529.63989	266.39603	1400.86182	-672.67929	316.71469	1188.8385	-694.9781	306.65308	1076.21033	-716.42494	339.7332	972.09015	-679.16969	287.46389	843.31039	-588.45207	350.16151	830.98953	-634.63825	352.09343	797.14874	-579.41956	-90.94705	1385.99274	-654.4606	-124.83785	1161.5873	-733.56529	-153.66739	1058.37204	-697.98454	-147.13155	946.70448	-719.71931	-171.85675	806.10458	-689.82895	-185.13489	762.73109	-639.38335	217.74111	951.09894	-624.60754	-59.06569	963.46603	-619.90509	160.55655	1007.15546	-792.17636	-16.2592	1024.65073	-790.57755	190.41414	626.90224	-693.5228	196.77162	488.90007	-561.25282	-129.01759	809.5546	-629.46846	191.64745	344.5052	-714.07547	190.18723	279.63604	-894.21104	149.56027	301.43087	-972.1817	152.59661	115.84255	-858.48862	-72.01638	705.07401	-753.39249	-31.55243	554.865	-634.89647	25.19182	358.52497	-645.90088	-9.23341	106.26023	-710.80521	11.76661	54.09035	-586.62346	39.5844	50.35987	-783.41385
68	2.733	145.50592	1629.62311	-523.60771	11.71097	1626.43768	-519.00261	135.94972	1602.73529	-656.20384	8.36024	1598.85345	-645.3936	155.83814	1365.36011	-563.09315	18.06752	1357.30743	-556.26896	143.11769	1432.46048	-671.49864	-5.88378	1429.86206	-656.01624	69.6809	1285.2684	-746.66389	87.64165	1285.50308	-519.33388	90.46391	1195.93506	-486.44329	264.77154	1403.59512	-631.80611	313.4967	1191.70052	-657.89864	301.04294	1080.44441	-682.45361	335.0705	975.05829	-653.44353	283.38772	838.67714	-573.32298	345.57686	830.2346	-621.71551	346.61129	789.84314	-570.02079	-91.73263	1389.83459	-608.49297	-126.96558	1163.75755	-679.63974	-155.7565	1061.567	-637.70786	-149.95508	948.21869	-652.45529	-173.70689	810.05829	-612.70626	-184.68779	770.0209	-558.8905	214.12729	953.76724	-579.7245	-63.33594	962.23022	-578.56205	159.69915	1007.4012	-748.45512	-16.69843	1024.68376	-747.42241	197.28273	631.0783	-625.98026	194.63196	507.19624	-478.20225	-127.80177	816.8161	-554.47681	186.93512	343.02608	-612.20371	181.81732	254.06815	-782.45667	138.8509	262.31544	-863.27393	147.0995	103.07767	-718.51372	-70.52813	708.76106	-725.6485	-34.8133	550.36346	-618.79944	25.35857	356.39282	-638.05508	-8.92506	106.16254	-710.12115	10.82221	52.86539	-585.60013	40.05451	51.15545	-783.48351
69	2.767	145.47157	1626.43661	-476.41716	11.83449	1623.04123	-470.00843	134.14906	1603.14301	-609.4709	6.74339	1598.94165	-597.01328	155.54264	1365.5925	-520.12459	18.19224	1358.42087	-512.48756	141.066	1430.9584	-628.56094	-7.01039	1428.97705	-612.45193	66.40906	1283.67661	-702.18819	86.76424	1286.51733	-475.34187	89.4025	1196.96442	-442.29977	263.21392	1402.71667	-590.80914	310.97265	1191.84143	-623.0061	295.94774	1081.8354	-650.19203	330.56095	975.31837	-628.84926	279.87232	833.26492	-557.48684	340.78609	828.50288	-607.97832	342.18349	782.52846	-561.04717	-92.26544	1391.27899	-563.59898	-129.28495	1164.00978	-626.11645	-157.65459	1063.37799	-579.17244	-151.65879	948.05794	-585.92945	-173.94791	813.18024	-535.30487	-183.83387	776.88026	-478.6414	212.11834	953.97972	-534.03469	-65.43298	957.26196	-535.95261	158.67941	1005.60402	-703.79707	-17.57698	1020.69847	-704.19518	204.28234	634.65702	-560.88604	192.52573	521.7643	-405.37064	-127.11547	824.41483	-478.50315	182.79175	334.50504	-510.30472	174.94455	215.46139	-661.58936	130.87573	207.63996	-742.65663	138.31195	81.17079	-564.9181	-68.21728	710.59052	-697.7739	-36.88696	545.48958	-601.39637	24.52117	354.47357	-629.22485	-8.00374	106.50908	-708.64571	10.16472	52.93749	-585.4945	41.52567	52.51996	-783.15475
